<svg xmlns="http://www.w3.org/2000/svg" viewBox="0 0 32 32" width="32" height="32">
  <defs>
    <linearGradient id="filmGradient" x1="0%" y1="0%" x2="100%" y2="100%">
      <stop offset="0%" style="stop-color:#FF0000;stop-opacity:1" />
      <stop offset="50%" style="stop-color:#DC143C;stop-opacity:1" />
      <stop offset="100%" style="stop-color:#B22222;stop-opacity:1" />
    </linearGradient>
  </defs>
  
  <!-- Film strip background -->
  <rect x="2" y="6" width="28" height="20" rx="2" fill="url(#filmGradient)" stroke="#2c3e50" stroke-width="1"/>
  
  <!-- Film holes -->
  <circle cx="5" cy="9" r="1" fill="#2c3e50"/>
  <circle cx="5" cy="13" r="1" fill="#2c3e50"/>
  <circle cx="5" cy="17" r="1" fill="#2c3e50"/>
  <circle cx="5" cy="21" r="1" fill="#2c3e50"/>
  <circle cx="5" cy="23" r="1" fill="#2c3e50"/>
  
  <circle cx="27" cy="9" r="1" fill="#2c3e50"/>
  <circle cx="27" cy="13" r="1" fill="#2c3e50"/>
  <circle cx="27" cy="17" r="1" fill="#2c3e50"/>
  <circle cx="27" cy="21" r="1" fill="#2c3e50"/>
  <circle cx="27" cy="23" r="1" fill="#2c3e50"/>
  
  <!-- Play button -->
  <polygon points="13,11 13,19 20,15" fill="#ffffff" stroke="#2c3e50" stroke-width="0.5"/>
  
  <!-- Film frames -->
  <rect x="8" y="8" width="6" height="4" fill="none" stroke="#2c3e50" stroke-width="0.5"/>
  <rect x="8" y="18" width="6" height="4" fill="none" stroke="#2c3e50" stroke-width="0.5"/>
  <rect x="18" y="8" width="6" height="4" fill="none" stroke="#2c3e50" stroke-width="0.5"/>
  <rect x="18" y="18" width="6" height="4" fill="none" stroke="#2c3e50" stroke-width="0.5"/>
</svg>
